<svg id="Capa_1" enable-background="new 0 0 512.003 512.003" height="512" viewBox="0 0 512.003 512.003" width="512" xmlns="http://www.w3.org/2000/svg"><g><g><path d="m326.805 512c-4.172 0-7.998-2.695-9.406-6.615-1.402-3.901-.201-8.431 3.01-11.075 3.106-2.557 7.549-3.012 11.1-1.122 3.719 1.98 5.828 6.214 5.161 10.378-.766 4.787-5.002 8.434-9.865 8.434z"/><path d="m278.363 263.261c-30.798 0-55.855-25.057-55.855-55.854s25.057-55.854 55.855-55.854 55.854 25.056 55.854 55.854-25.056 55.854-55.854 55.854zm0-91.708c-19.771 0-35.855 16.084-35.855 35.854 0 19.771 16.084 35.854 35.855 35.854s35.854-16.084 35.854-35.854c.001-19.77-16.083-35.854-35.854-35.854z"/><path d="m278.363 307.261c-55.06 0-99.855-44.795-99.855-99.854s44.795-99.854 99.855-99.854 99.854 44.794 99.854 99.854-44.794 99.854-99.854 99.854zm0-179.708c-44.032 0-79.855 35.822-79.855 79.854s35.822 79.854 79.855 79.854 79.854-35.822 79.854-79.854c.001-44.032-35.821-79.854-79.854-79.854z"/><path d="m278.363 351.261c-79.321 0-143.854-64.533-143.854-143.854s64.533-143.854 143.854-143.854 143.854 64.532 143.854 143.854-64.532 143.854-143.854 143.854zm0-267.708c-68.293 0-123.854 55.561-123.854 123.854 0 68.294 55.561 123.854 123.854 123.854 68.294 0 123.854-55.561 123.854-123.854.001-68.294-55.56-123.854-123.854-123.854z"/><path d="m380.87 512.003c-4.098 0-7.94-2.537-9.409-6.613l-33.588-93.216c-.903-2.507-.769-5.271.374-7.678s3.198-4.259 5.712-5.144c70.398-24.8 116.927-101.836 115.779-191.693-.984-77.062-36.176-138.32-96.55-168.068-26.394-13.003-54.708-19.591-84.175-19.591-.503 0-1.006.002-1.51.006-15.82.118-31.312 1.542-46.046 4.233-84.908 15.491-131.099 56.088-141.205 124.099l-1.555 13.853c-.304 5.047-.528 51.114-.528 59.426.006.207.01.388.01.564 0 1.832-.503 3.629-1.455 5.195l-34.165 56.196c-.577 1.143-.258 2.145-.01 2.65.263.533.909 1.46 2.298 1.671.229.035.457.078.684.129l22.534 5.047c4.567 1.022 7.814 5.077 7.814 9.758v83.285c0 4.461 1.521 7.944 4.787 10.961 18.834 17.394 80.844 12.46 107.321 10.354 6.502-.518 11.638-.926 15.027-.985.06-.002.118-.002.177-.002 2.619 0 5.137 1.028 7.009 2.867 1.913 1.88 2.991 4.45 2.991 7.133v75.56h58.587c5.522 0 10 4.478 10 10s-4.478 10-10 10h-68.587c-5.522 0-10-4.478-10-10v-74.923c-1.16.091-2.371.188-3.618.286-33.973 2.703-97.213 7.734-122.477-15.598-7.339-6.778-11.218-15.648-11.218-25.653v-75.277l-14.428-3.231c-7.304-1.237-13.583-5.909-16.852-12.56-3.317-6.751-3.119-14.71.532-21.291.063-.116.131-.23.199-.345l32.845-54.023c.033-10.385.201-53.637.587-58.832.01-.125.021-.25.035-.374l1.599-14.246c.013-.115.027-.23.045-.345 5.978-40.503 23.977-73.271 53.496-97.396 25.785-21.072 60.751-35.751 103.928-43.628 15.865-2.897 32.516-4.432 49.487-4.559 33.141-.239 65.007 7.029 94.675 21.644 33.502 16.508 61.03 42.642 79.607 75.577 17.868 31.678 27.586 69.776 28.102 110.177.585 45.798-10.945 91.377-32.468 128.341-21.361 36.69-51.389 63.773-87.266 78.846l30.274 84.021c1.872 5.195-.822 10.926-6.019 12.798-1.116.402-2.261.594-3.386.594z"/></g></g></svg>