<svg height="409pt" viewBox="-24 0 409 409.59701" width="409pt" xmlns="http://www.w3.org/2000/svg"><path d="m194.113281 122.878906c-3.769531 0-6.828125-3.054687-6.828125-6.828125v-68.265625c-.015625.238282-.054687-.148437-.070312-.429687-.15625-2.625 1.210937-5.105469 3.511718-6.378907 2.304688-1.285156 5.125-1.113281 7.269532.421876l26.28125 18.773437c2.96875 2.105469 7.421875 1.359375 9.523437-1.59375 2.1875-3.070313 1.472657-7.335937-1.589843-9.527344l-47.78125-34.132812c-2.367188-1.6875-5.558594-1.699219-7.945313.003906l-47.78125 34.128906c-3.0625 2.191407-3.773437 6.457031-1.589844 9.527344 2.183594 3.058594 6.464844 3.757813 9.546875 1.578125l26.261719-18.757812c2.136719-1.535157 4.96875-1.699219 7.269531-.421876 2.300782 1.273438 3.667969 3.753907 3.511719 6.378907-.007813.179687-.066406.707031-.089844.890625l.019531 67.804687c0 3.773438-3.058593 6.828125-6.828124 6.828125-3.769532 0-6.824219-3.054687-6.824219-6.828125v-55.773437l-15.40625 11c-9.210938 6.546875-22.03125 4.40625-28.570313-4.773438-6.5625-9.171875-4.425781-21.992187 4.761719-28.558594l47.789063-34.132812c7.128906-5.082031 16.699218-5.082031 23.804687-.007812l47.789063 34.140624c9.191406 6.566407 11.328124 19.386719 4.761718 28.566407-6.3125 8.851562-19.664062 11.113281-28.558594 4.773437l-15.414062-11.007812v55.773437c0 3.773438-3.054688 6.828125-6.824219 6.828125zm0 0"/><path d="m180.457031 409.597656c-4.171875 0-8.34375-1.265625-11.898437-3.804687l-47.789063-34.140625c-9.191406-6.570313-11.328125-19.386719-4.761719-28.566406 6.53125-9.175782 19.332032-11.320313 28.550782-4.78125l15.421875 11.011718v-55.773437c0-3.773438 3.054687-6.824219 6.824219-6.824219 3.769531 0 6.828124 3.050781 6.828124 6.824219v68.265625c.035157-.230469.050782.148437.070313.429687.15625 2.625-1.210937 5.105469-3.511719 6.378907-2.308594 1.273437-5.132812 1.113281-7.269531-.421876l-26.28125-18.773437c-3.0625-2.160156-7.347656-1.457031-9.519531 1.589844-2.191406 3.074219-1.480469 7.339843 1.585937 9.53125l47.78125 34.132812c2.375 1.703125 5.566407 1.707031 7.945313-.003906l47.78125-34.128906c3.058594-2.191407 3.773437-6.457031 1.585937-9.527344-2.109375-2.949219-6.546875-3.710937-9.53125-1.585937l-26.273437 18.765624c-2.136719 1.535157-4.964844 1.703126-7.273438.421876-2.300781-1.273438-3.664062-3.753907-3.507812-6.378907.007812-.179687.066406-.707031.089844-.890625l-.019532-67.804687c0-3.773438 3.058594-6.824219 6.828125-6.824219s6.824219 3.050781 6.824219 6.824219v55.773437l15.402344-11c8.914062-6.359375 22.253906-4.085937 28.570312 4.769532 6.566406 9.179687 4.429688 22-4.757812 28.566406l-47.792969 34.132812c-3.558594 2.539063-7.730469 3.8125-11.902344 3.8125zm0 0"/><path d="m79.378906 346.210938c-2.597656 0-5.199218-.5-7.675781-1.507813l-54.449219-22c-8.113281-3.285156-13.242187-11.359375-12.777344-20.085937l3.15625-58.648438c.609376-11.269531 10.304688-19.953125 21.554688-19.34375 6.585938.34375 12.640625 3.882812 16.1875 9.472656 2.292969 3.597656 3.386719 7.773438 3.164062 12.058594l-1.015624 18.914062 47.058593-29.925781c3.179688-2.023437 7.402344-1.082031 9.421875 2.09375 2.023438 3.183594 1.085938 7.40625-2.097656 9.425781l-57.601562 36.632813c.144531-.046875-.046876.09375-.3125.285156-2.140626 1.546875-4.957032 1.734375-7.277344.46875-2.308594-1.261719-3.6875-3.734375-3.546875-6.363281l1.734375-32.25c.074218-1.429688-.289063-2.8125-1.046875-4.015625-1.191407-1.867187-3.203125-3.046875-5.394531-3.160156-3.792969-.175781-6.988282 2.6875-7.195313 6.445312l-3.160156 58.632813c-.152344 2.914062 1.5625 5.605468 4.273437 6.707031l54.433594 22c1.691406.675781 3.550781.65625 5.226562-.046875 1.675782-.710938 2.976563-2.03125 3.660157-3.726562 1.414062-3.480469-.285157-7.472657-3.785157-8.898438l-29.925781-12.09375c-2.429687-.980469-4.082031-3.261719-4.253906-5.875-.171875-2.609375 1.164063-5.097656 3.441406-6.390625.171875-.09375.675781-.347656.859375-.425781l57.203125-36.410156c3.179688-2.019532 7.398438-1.070313 9.421875 2.097656 2.023438 3.183594 1.082032 7.40625-2.097656 9.425781l-47.0625 29.933594 17.550781 7.09375c10.472657 4.273437 15.539063 16.234375 11.308594 26.675781-2.046875 5.058594-5.949219 9.03125-10.984375 11.164062-2.574219 1.09375-5.285156 1.640626-7.996094 1.640626zm0 0"/><path d="m332.84375 184.996094c-.367188 0-.738281-.003906-1.109375-.027344-11.238281-.59375-19.925781-10.246094-19.355469-21.523438l1.015625-18.921874-47.058593 29.925781c-3.183594 2.023437-7.398438 1.082031-9.421876-2.09375-2.023437-3.183594-1.082031-7.40625 2.097657-9.425781l57.601562-36.632813c-.140625.074219.054688-.09375.316407-.285156 2.132812-1.539063 4.960937-1.734375 7.273437-.46875 2.308594 1.261719 3.6875 3.734375 3.550781 6.363281l-1.738281 32.25c-.191406 3.753906 2.699219 6.980469 6.441406 7.175781 3.722657.226563 7-2.6875 7.199219-6.445312l3.15625-58.632813c.152344-2.914062-1.558594-5.609375-4.269531-6.707031l-54.4375-22.003906c-1.695313-.683594-3.554688-.660157-5.226563.046875-1.675781.714844-2.976562 2.035156-3.660156 3.726562-.824219 2.042969-.613281 4.367188.574219 6.234375.757812 1.199219 1.871093 2.121094 3.207031 2.660157l29.929688 12.101562c2.429687.980469 4.085937 3.257812 4.257812 5.871094.167969 2.613281-1.167969 5.101562-3.445312 6.394531-.171876.09375-.675782.347656-.855469.425781l-57.207031 36.40625c-3.179688 2.019532-7.402344 1.082032-9.421876-2.09375-2.023437-3.1875-1.082031-7.40625 2.097657-9.425781l47.0625-29.933594-17.546875-7.09375c-4-1.617187-7.3125-4.386719-9.605469-7.992187-3.539063-5.574219-4.179687-12.554688-1.707031-18.671875 2.050781-5.066407 5.949218-9.042969 10.988281-11.175781 5.039063-2.132813 10.605469-2.191407 15.675781-.132813l54.445313 22c8.113281 3.289063 13.242187 11.359375 12.777343 20.089844l-3.15625 58.644531c-.597656 10.898438-9.65625 19.371094-20.445312 19.371094zm0 0"/><path d="m286.734375 341.691406c-7.789063 0-15.242187-4.453125-18.671875-11.988281-2.738281-6-2.402344-13.003906.898438-18.734375 2.128906-3.699219 5.328124-6.605469 9.238281-8.386719l17.230469-7.851562-48.320313-27.859375c-3.265625-1.882813-4.382813-6.0625-2.503906-9.320313 1.882812-3.265625 6.0625-4.402343 9.324219-2.507812l59.140624 34.097656c-.175781-.132813.132813.015625.40625.148437 2.351563 1.179688 3.820313 3.597657 3.773438 6.226563-.050781 2.632813-1.601562 5-3.996094 6.09375l-29.390625 13.390625c-1.304687.59375-2.367187 1.5625-3.074219 2.789062-1.105468 1.914063-1.222656 4.253907-.308593 6.253907 1.558593 3.433593 5.625 4.941406 9.054687 3.386719l53.433594-24.355469c2.652344-1.207031 4.242188-3.972657 3.964844-6.875l-5.703125-58.453125c-.175781-1.8125-1.050781-3.445313-2.457031-4.605469-1.40625-1.152344-3.183594-1.679687-5-1.519531-3.742188.359375-6.488282 3.71875-6.136719 7.480468l3.136719 32.125c.253906 2.628907-1.03125 5.171876-3.304688 6.527344-2.265625 1.351563-5.117188 1.273438-7.3125-.214844-.140625-.09375-.554688-.398437-.683594-.5l-58.722656-33.832031c-3.269531-1.878906-4.386719-6.058593-2.503906-9.320312 1.878906-3.273438 6.050781-4.390625 9.324218-2.507813l48.316407 27.859375-1.835938-18.839843c-1.0625-11.257813 7.195313-21.277344 18.402344-22.363282 5.457031-.507812 10.765625 1.09375 14.984375 4.558594 4.230469 3.472656 6.851562 8.386719 7.382812 13.828125l5.699219 58.460937c.847657 8.699219-3.929687 16.984376-11.886719 20.617188l-53.445312 24.355469c-2.738281 1.246093-5.617188 1.835937-8.453125 1.835937zm0 0"/><path d="m26.433594 191.65625c-4.71875 0-9.261719-1.617188-12.957032-4.65625-4.230468-3.476562-6.851562-8.386719-7.382812-13.828125l-5.699219-58.460937c-.847656-8.699219 3.929688-16.988282 11.886719-20.621094l53.445312-24.351563c10.277344-4.667969 22.449219-.121093 27.128907 10.152344 4.675781 10.230469.136719 22.40625-10.125 27.121094l-17.246094 7.851562 48.320313 27.859375c3.265624 1.882813 4.382812 6.0625 2.503906 9.320313-1.886719 3.265625-6.066406 4.378906-9.324219 2.507812l-59.140625-34.097656c.175781.132813-.132812-.015625-.40625-.148437-2.351562-1.179688-3.820312-3.597657-3.773438-6.226563.050782-2.632813 1.601563-5 3.996094-6.089844l29.390625-13.394531c3.414063-1.566406 4.941407-5.628906 3.378907-9.042969-1.558594-3.425781-5.625-4.9375-9.050782-3.382812l-53.4375 24.351562c-2.648437 1.207031-4.242187 3.972657-3.960937 6.875l5.699219 58.453125c.179687 1.8125 1.054687 3.445313 2.460937 4.605469 1.40625 1.152344 3.148437 1.652344 5 1.519531 2.191406-.210937 4.152344-1.480468 5.253906-3.386718.714844-1.238282 1.019531-2.644532.878907-4.078126l-3.132813-32.140624c-.257813-2.628907 1.03125-5.171876 3.304687-6.527344 2.273438-1.339844 5.121094-1.265625 7.3125.214844.140626.09375.554688.398437.683594.5l58.722656 33.832031c3.265626 1.878906 4.386719 6.058593 2.503907 9.320312-1.886719 3.265625-6.066407 4.386719-9.324219 2.507813l-48.316406-27.859375 1.835937 18.839843c.414063 4.277344-.5 8.5-2.640625 12.210938-3.296875 5.722656-9.191406 9.519531-15.761718 10.152344-.679688.066406-1.351563.097656-2.027344.097656zm0 0"/><path d="m180.457031 300.371094c-52.699219 0-95.570312-42.875-95.570312-95.574219s42.871093-95.574219 95.570312-95.574219c52.703125 0 95.574219 42.875 95.574219 95.574219s-42.871094 95.574219-95.574219 95.574219zm0-177.492188c-45.167969 0-81.917969 36.746094-81.917969 81.917969 0 45.175781 36.75 81.921875 81.917969 81.921875 45.171875 0 81.921875-36.746094 81.921875-81.921875 0-45.171875-36.75-81.917969-81.921875-81.917969zm0 136.53125c-30.113281 0-54.613281-24.5-54.613281-54.613281s24.5-54.613281 54.613281-54.613281c30.117188 0 54.613281 24.5 54.613281 54.613281s-24.496093 54.613281-54.613281 54.613281zm0-95.574218c-22.585937 0-40.957031 18.375-40.957031 40.960937s18.371094 40.960937 40.957031 40.960937c22.585938 0 40.960938-18.375 40.960938-40.960937s-18.375-40.960937-40.960938-40.960937zm0 0"/></svg>